<svg xmlns="http://www.w3.org/2000/svg" width="23" height="22" viewBox="0 0 23 22">
  <path fill="#FFFFFF" fill-rule="evenodd" d="M22.250585,8.03999189 L17.7818289,0.277224461 C17.6571169,0.0495069297 17.3661313,-0.0332932844 17.1375017,0.111610479 L9.38473851,4.58297113 C9.21845947,4.68646801 9.11453507,4.89347532 9.15610483,5.07978597 L11.7957847,17.9556435 L11.4008719,18.4110596 C10.7357557,19.1562859 10.1953489,19.5495998 9.13531995,19.5495998 C7.95058176,19.5495998 7.38938998,18.9285779 6.516425,17.8107384 C5.4563961,16.4858916 4.14694862,14.8298331 0.966861902,14.8298331 L0.88372238,14.8298331 C0.447239889,14.8298331 0.0938966484,15.1817455 0.0938966484,15.6164609 L0.0938966484,15.6164609 L0.0938966484,15.6164609 C0.0938966484,16.0511762 0.447239889,16.4030887 0.88372238,16.4030887 L0.966861902,16.4030887 C3.39869292,16.4030887 4.31322767,17.5623296 5.29011705,18.7836727 C6.16308203,19.8808115 7.13997142,21.1228554 9.15610483,21.1228554 C10.8812499,21.1228554 11.8373544,20.3155255 12.6063896,19.4460948 L15.4539304,16.2374814 L15.4539304,16.2374814 L22.188229,8.59891027 C22.312941,8.43330985 22.3545026,8.20559232 22.250585,8.03999189 Z"/>
</svg>
