<svg xmlns="http://www.w3.org/2000/svg" width="11" height="12" viewBox="0 0 11 12">
  <path fill="#D6D5D5" fill-rule="evenodd" d="M258.480392,182.829415 L249.127451,182.829415 C248.841053,182.829415 248.607843,183.062072 248.607843,183.347792 L248.607843,192.678574 C248.607843,192.964293 248.841053,193.19695 249.127451,193.19695 L258.480392,193.19695 C258.76679,193.19695 259,192.964293 259,192.678574 L259,183.347792 C259,183.062072 258.76679,182.829415 258.480392,182.829415 Z M256.661765,183.866169 C257.091362,183.866169 257.441176,184.215154 257.441176,184.643734 C257.441176,185.072313 257.091362,185.421299 256.661765,185.421299 C256.232168,185.421299 255.882353,185.072313 255.882353,184.643734 C255.882353,184.215154 256.232168,183.866169 256.661765,183.866169 Z M250.946078,183.866169 C251.375675,183.866169 251.72549,184.215154 251.72549,184.643734 C251.72549,185.072313 251.375675,185.421299 250.946078,185.421299 C250.516481,185.421299 250.166667,185.072313 250.166667,184.643734 C250.166667,184.215154 250.516481,183.866169 250.946078,183.866169 Z M257.960784,191.95203 C257.960784,192.066318 257.868728,192.160197 257.752123,192.160197 L249.85572,192.160197 C249.741161,192.160197 249.647059,192.068358 249.647059,191.95203 L249.647059,186.666219 C249.647059,186.551932 249.739115,186.458052 249.85572,186.458052 L257.752123,186.458052 C257.866682,186.458052 257.960784,186.549891 257.960784,186.666219 L257.960784,191.95203 Z" transform="translate(-248 -182)"/>
</svg>
