<svg xmlns="http://www.w3.org/2000/svg" width="11" height="12" viewBox="0 0 11 12">
  <path fill="#FFFFFF" fill-rule="evenodd" d="M78.4803922,182.829415 L69.127451,182.829415 C68.841053,182.829415 68.6078431,183.062072 68.6078431,183.347792 L68.6078431,192.678574 C68.6078431,192.964293 68.841053,193.19695 69.127451,193.19695 L78.4803922,193.19695 C78.7667902,193.19695 79,192.964293 79,192.678574 L79,183.347792 C79,183.062072 78.7667902,182.829415 78.4803922,182.829415 Z M76.6617647,183.866169 C77.0913617,183.866169 77.4411765,184.215154 77.4411765,184.643734 C77.4411765,185.072313 77.0913617,185.421299 76.6617647,185.421299 C76.2321677,185.421299 75.8823529,185.072313 75.8823529,184.643734 C75.8823529,184.215154 76.2321677,183.866169 76.6617647,183.866169 Z M70.9460784,183.866169 C71.3756755,183.866169 71.7254902,184.215154 71.7254902,184.643734 C71.7254902,185.072313 71.3756755,185.421299 70.9460784,185.421299 C70.5164814,185.421299 70.1666667,185.072313 70.1666667,184.643734 C70.1666667,184.215154 70.5164814,183.866169 70.9460784,183.866169 Z M77.9607843,191.95203 C77.9607843,192.066318 77.8687278,192.160197 77.7521229,192.160197 L69.8557202,192.160197 C69.741161,192.160197 69.6470588,192.068358 69.6470588,191.95203 L69.6470588,186.666219 C69.6470588,186.551932 69.7391153,186.458052 69.8557202,186.458052 L77.7521229,186.458052 C77.8666821,186.458052 77.9607843,186.549891 77.9607843,186.666219 L77.9607843,191.95203 Z" transform="translate(-68 -182)"/>
</svg>
