<svg xmlns="http://www.w3.org/2000/svg" width="18" height="18" viewBox="0 0 18 18">
  <g fill="none" fill-rule="evenodd">
    <path fill="#FFCD47" d="M8.83529412,0 C3.95501158,0 0,3.94987032 0,8.82380881 C0,13.6977473 3.95501158,17.6476176 8.83529412,17.6476176 C13.7155767,17.6476176 17.6705882,13.6977473 17.6705882,8.82380881 C17.6705882,3.94987032 13.7155767,0 8.83529412,0 Z"/>
    <path fill="#FFFFFF" d="M13.4015934,7.70016091 L10.8533376,9.54691029 C10.7786243,9.60287239 10.7466044,9.69880743 10.775956,9.78674787 L11.5817919,12.7154312 C11.6458318,12.912631 11.4190237,13.0778525 11.2509189,12.9552688 L8.87076791,11.1698113 C8.79605465,11.116514 8.69198976,11.116514 8.6172765,11.1698113 L6.23979387,12.9579337 C6.07168903,13.0805173 5.84488093,12.9152959 5.90892086,12.7180961 L6.7120884,9.78941274 C6.74144003,9.70147229 6.70942007,9.60287239 6.63470681,9.54957515 L4.08911934,7.70282578 C3.92101451,7.58024212 4.00640109,7.31375592 4.21453088,7.31375592 L7.36049275,7.31375592 C7.45388432,7.31375592 7.53660258,7.25512896 7.56595421,7.16452365 L8.53722658,4.14789984 C8.60126651,3.95070005 8.88144124,3.95070005 8.94548117,4.14789984 L9.91675354,7.16452365 C9.94610518,7.25246409 10.0288234,7.31375592 10.122215,7.31375592 L13.2681769,7.31375592 C13.4816433,7.31109106 13.5696982,7.57757726 13.4015934,7.70016091 Z"/>
  </g>
</svg>
